<?xml version="1.0" standalone="no"?>
<!DOCTYPE svg PUBLIC "-//W3C//DTD SVG 20010904//EN"
 "http://www.w3.org/TR/2001/REC-SVG-20010904/DTD/svg10.dtd">
<svg version="1.0" xmlns="http://www.w3.org/2000/svg"
 width="176.000000pt" height="166.000000pt" viewBox="0 0 176.000000 166.000000"
 preserveAspectRatio="xMidYMid meet">

<g transform="translate(0.000000,166.000000) scale(0.100000,-0.100000)"
fill="#FFF" stroke="none">
<path d="M730 1565 c-242 -54 -429 -202 -530 -420 -50 -106 -70 -201 -70 -327
0 -129 19 -208 75 -324 74 -152 221 -290 380 -357 221 -92 490 -69 694 60 123
77 249 229 301 363 106 268 41 588 -160 788 -102 102 -197 159 -335 202 -92
28 -264 36 -355 15z m281 -9 c152 -27 276 -93 394 -211 158 -156 230 -367 204
-590 -30 -251 -173 -457 -399 -575 -117 -60 -228 -83 -370 -77 -204 9 -342 70
-491 217 -73 73 -94 100 -132 180 -62 129 -81 223 -75 364 9 195 73 340 213
481 181 181 409 255 656 211z"/>
<path d="M758 1540 c-442 -80 -707 -527 -564 -950 75 -219 268 -394 506 -456
86 -23 252 -23 345 0 356 86 600 443 545 800 -44 291 -245 517 -525 591 -72
19 -241 27 -307 15z m248 -21 c231 -42 440 -215 525 -434 111 -284 28 -599
-209 -797 -157 -131 -388 -187 -592 -144 -209 44 -409 206 -495 401 -82 185
-75 417 19 603 137 271 451 426 752 371z"/>
<path d="M765 1490 c-3 -5 1 -10 9 -10 15 0 22 -29 17 -68 -2 -8 5 -12 16 -10
14 3 17 11 15 41 -2 22 1 37 7 37 6 0 11 5 11 10 0 6 -15 10 -34 10 -19 0 -38
-4 -41 -10z"/>
<path d="M881 1455 c-1 -35 2 -45 14 -45 8 0 15 7 15 15 0 8 5 15 10 15 6 0
10 -9 10 -20 0 -11 6 -20 14 -20 10 0 15 15 18 50 2 37 -1 50 -10 50 -8 0 -16
-9 -19 -20 -3 -11 -10 -20 -15 -20 -6 0 -8 9 -5 20 4 14 0 20 -12 20 -13 0
-18 -10 -20 -45z"/>
<path d="M1012 1468 c-13 -13 -16 -47 -4 -65 13 -21 58 -26 76 -8 34 34 14 85
-34 85 -14 0 -31 -5 -38 -12z m58 -34 c0 -28 -28 -44 -40 -24 -14 23 12 66 32
54 4 -3 8 -16 8 -30z"/>
<path d="M660 1420 c0 -50 13 -67 23 -30 5 20 27 28 27 10 0 -5 9 -10 20 -10
26 0 25 4 -6 46 -15 19 -35 34 -45 34 -16 0 -19 -8 -19 -50z"/>
<path d="M558 1424 c-32 -17 -37 -53 -12 -78 19 -20 44 -20 70 -2 25 19 12 31
-15 14 -18 -11 -23 -11 -31 2 -15 23 -12 48 7 59 29 16 10 20 -19 5z"/>
<path d="M1133 1400 l-21 -40 27 -15 c32 -16 50 -9 25 10 -15 10 -15 14 0 43
19 37 20 42 4 42 -7 0 -23 -18 -35 -40z"/>
<path d="M1222 1354 c-17 -26 -21 -39 -13 -47 6 -6 12 -9 13 -6 2 2 13 18 26
36 12 18 22 37 22 43 0 22 -26 8 -48 -26z"/>
<path d="M740 1364 c-101 -27 -180 -73 -255 -148 -214 -217 -219 -544 -11
-763 109 -116 241 -173 401 -174 379 -1 645 357 531 716 -59 185 -202 320
-392 370 -72 19 -201 18 -274 -1z m264 -14 c131 -33 211 -84 298 -192 244
-300 79 -762 -303 -853 -125 -29 -242 -15 -369 47 -82 39 -194 150 -232 230
-131 270 -31 585 230 721 126 66 244 81 376 47z"/>
<path d="M804 1350 c-271 -38 -469 -283 -451 -555 10 -131 49 -225 137 -319
141 -153 357 -208 555 -142 138 47 242 139 307 271 95 192 52 440 -102 595
-114 113 -287 172 -446 150z m196 -21 c224 -51 390 -264 390 -498 0 -144 -48
-259 -150 -362 -102 -102 -216 -149 -366 -149 -222 0 -420 142 -485 350 -24
78 -29 201 -10 280 42 174 191 328 362 374 64 17 195 20 259 5z"/>
<path d="M850 1319 c0 -7 -10 -9 -25 -5 -22 6 -25 3 -25 -18 0 -30 15 -42 24
-20 5 13 9 14 21 4 13 -11 15 -8 15 19 0 17 -2 31 -5 31 -3 0 -5 -5 -5 -11z"/>
<path d="M753 1313 c-26 -5 -31 -23 -8 -23 8 0 15 -9 15 -21 0 -11 4 -17 10
-14 6 4 8 15 5 26 -4 11 -2 19 4 19 6 0 11 5 11 10 0 6 -3 9 -7 9 -5 -1 -18
-4 -30 -6z"/>
<path d="M945 1299 c-10 -15 1 -23 20 -15 9 3 13 10 10 16 -8 13 -22 13 -30
-1z"/>
<path d="M704 1280 c3 -14 6 -28 6 -32 0 -5 5 -8 10 -8 15 0 12 24 -6 46 -15
18 -15 18 -10 -6z"/>
<path d="M1058 1271 c-18 -25 -15 -47 4 -35 6 4 14 0 19 -7 8 -11 12 -10 24 5
20 27 19 39 -4 31 -14 -4 -20 -1 -23 12 -3 16 -5 15 -20 -6z"/>
<path d="M640 1240 c0 -35 -1 -34 34 -16 25 13 25 14 8 30 -28 24 -42 20 -42
-14z"/>
<path d="M855 1252 c-18 -18 7 -24 33 -9 7 5 12 3 12 -3 0 -6 5 -8 10 -5 19
12 10 21 -20 21 -17 0 -32 -2 -35 -4z"/>
<path d="M938 1244 c-21 -21 -88 -26 -95 -7 -5 12 -7 12 -14 1 -5 -7 -9 -8 -9
-2 0 6 -7 11 -15 11 -10 0 -7 -7 10 -23 13 -12 27 -34 31 -48 3 -14 10 -26 15
-26 11 0 -14 -82 -34 -110 -15 -21 -14 -25 9 -59 13 -19 24 -40 24 -46 -1 -5
-20 -32 -44 -59 l-44 -49 9 56 c5 31 13 66 17 79 5 13 8 40 7 61 -1 21 2 40 7
43 13 8 9 48 -8 89 -8 21 -13 44 -10 51 3 8 1 14 -4 14 -5 0 -12 -10 -16 -22
-8 -22 -8 -21 -14 7 l-7 30 -12 -42 c-11 -41 -31 -67 -31 -41 0 9 -3 9 -10 -2
-12 -19 -13 -77 -1 -84 14 -9 4 -72 -15 -95 -10 -11 -21 -16 -24 -11 -3 5 -38
-31 -78 -81 -40 -49 -69 -89 -65 -89 5 0 37 36 72 80 36 44 66 78 68 76 3 -2
-25 -50 -62 -106 -36 -56 -64 -104 -62 -107 3 -2 40 50 82 117 68 105 80 119
92 107 11 -10 14 -39 14 -102 -1 -81 -3 -89 -31 -125 -16 -21 -30 -40 -30 -43
0 -3 12 -7 28 -9 25 -3 27 -6 27 -48 0 -41 2 -45 25 -45 23 0 25 3 22 39 -4
38 -3 39 25 32 15 -4 37 -8 48 -10 11 -2 46 -11 78 -21 55 -16 57 -18 57 -51
0 -30 3 -34 25 -34 21 0 25 5 25 29 0 16 8 39 18 51 l18 22 49 -76 c27 -42 50
-74 53 -72 2 2 -19 38 -47 80 l-50 76 22 26 23 26 49 -58 c27 -33 57 -67 67
-77 10 -10 18 -27 18 -37 0 -11 5 -20 10 -20 6 0 10 7 10 15 0 7 7 18 16 23
13 7 11 10 -13 15 -19 4 -50 29 -91 76 l-63 70 51 65 52 64 46 -25 c39 -21 43
-21 22 -4 -14 11 -38 26 -55 33 -16 7 -38 22 -47 34 -10 12 -38 27 -63 34 -25
7 -48 17 -51 21 -3 5 -11 9 -17 9 -8 0 -8 -3 1 -9 11 -7 11 -9 -2 -14 -12 -5
-16 0 -16 23 0 28 3 30 35 30 25 0 35 4 35 16 0 10 5 14 15 10 9 -3 42 -13 75
-21 33 -8 67 -18 77 -22 12 -4 15 -3 8 4 -8 9 -60 25 -227 70 -13 3 -18 14
-18 38 0 33 0 33 -50 33 -27 1 -58 6 -67 12 -15 8 -13 9 10 4 39 -9 257 6 257
18 0 5 -9 7 -20 3 -11 -3 -77 -8 -148 -9 -128 -4 -128 -4 -128 19 0 13 5 21
11 18 7 -2 12 3 12 12 0 9 -6 14 -13 11 -21 -8 -26 10 -7 25 12 10 14 10 9 2
-10 -18 9 -16 24 2 7 8 18 15 24 15 6 0 0 -9 -14 -20 -33 -26 -20 -25 24 1 20
12 36 26 36 32 0 7 -4 7 -12 -1 -17 -17 -29 -15 -22 3 8 19 2 19 -18 -1z
m-173 -114 c4 -16 3 -35 0 -41 -5 -7 -1 -10 11 -7 14 3 18 12 17 31 -1 15 2
25 8 22 19 -12 10 -55 -13 -64 -29 -11 -34 -5 -43 47 -8 48 10 60 20 12z m-25
-50 c0 -20 -2 -22 -10 -10 -5 8 -10 26 -10 40 0 20 2 22 10 10 5 -8 10 -26 10
-40z m240 2 c0 -10 -72 -34 -79 -26 -3 3 6 8 19 11 22 6 23 7 4 14 -14 6 -9 8
19 8 20 1 37 -3 37 -7z m40 -32 c0 -39 1 -40 35 -40 24 0 35 -5 35 -15 0 -10
-11 -15 -35 -15 -33 0 -35 -2 -35 -34 0 -19 -4 -37 -9 -40 -11 -7 -21 17 -21
49 0 25 -17 35 -58 35 -38 0 -15 18 28 22 33 3 35 6 38 41 4 50 22 48 22 -3z
m-43 4 c-3 -3 -12 -4 -19 -1 -8 3 -5 6 6 6 11 1 17 -2 13 -5z m-190 -10 c-3
-3 -12 -4 -19 -1 -8 3 -5 6 6 6 11 1 17 -2 13 -5z m121 -5 c20 11 72 3 72 -11
0 -6 -7 -7 -15 -4 -8 3 -22 9 -32 13 -11 4 -14 3 -9 -5 5 -8 1 -10 -10 -5 -12
5 -15 3 -9 -6 6 -10 2 -11 -15 -6 -15 5 -20 3 -16 -3 15 -24 -11 -18 -28 7
-11 14 -13 20 -6 14 20 -19 35 -16 19 4 -13 15 -12 15 9 4 14 -8 28 -9 40 -2z
m-133 -19 c3 -6 -4 -10 -17 -10 -18 0 -20 2 -8 10 19 12 18 12 25 0z m104 -30
c9 5 24 2 40 -8 14 -9 33 -15 43 -14 10 2 18 -1 18 -7 0 -6 -7 -7 -17 -4 -11
4 -14 3 -9 -6 11 -17 -43 -3 -69 18 -18 15 -19 15 -6 -2 8 -9 11 -20 7 -24 -6
-7 -27 16 -48 52 -10 19 -10 19 8 3 13 -11 24 -14 33 -8z m-92 4 c-3 -3 -12
-4 -19 -1 -8 3 -5 6 6 6 11 1 17 -2 13 -5z m3 -24 c0 -5 -9 -10 -21 -10 -11 0
-17 5 -14 10 3 6 13 10 21 10 8 0 14 -4 14 -10z m180 -38 c-7 -3 -3 -10 9 -18
20 -14 18 -18 -66 -120 -48 -57 -91 -102 -97 -99 -6 3 -19 8 -28 11 -21 7 -25
72 -6 107 16 32 87 111 104 117 8 3 33 5 55 5 22 0 35 -1 29 -3z m-223 -34
c-3 -7 -5 -2 -5 12 0 14 2 19 5 13 2 -7 2 -19 0 -25z m20 0 c-3 -7 -5 -2 -5
12 0 14 2 19 5 13 2 -7 2 -19 0 -25z m343 2 c65 -19 66 -21 14 -96 -27 -38
-64 -89 -84 -114 l-35 -46 -40 23 c-29 17 -52 22 -82 20 -51 -4 -52 -8 47 112
89 107 113 120 180 101z m-340 -35 c0 -1 -9 -12 -20 -25 -11 -13 -20 -18 -20
-12 0 6 5 14 10 17 6 4 8 10 6 14 -3 4 1 8 9 8 8 0 15 -1 15 -2z m359 -104
c-29 -39 -55 -68 -57 -66 -2 2 20 35 49 74 29 39 55 68 57 66 3 -2 -19 -36
-49 -74z m-378 35 c5 3 9 0 9 -5 0 -6 -7 -11 -15 -11 -8 0 -15 8 -14 18 0 10
3 12 6 4 2 -6 9 -10 14 -6z m-11 -61 c-7 -8 -19 -15 -28 -15 -12 0 -10 6 9 26
24 26 41 16 19 -11z m-13 -41 c-3 -3 -12 -4 -19 -1 -8 3 -5 6 6 6 11 1 17 -2
13 -5z m68 -22 c-3 -3 -11 0 -18 7 -9 10 -8 11 6 5 10 -3 15 -9 12 -12z m-45
-17 c0 -8 -4 -15 -10 -15 -5 0 -10 7 -10 15 0 8 5 15 10 15 6 0 10 -7 10 -15z
m203 -2 c-7 -2 -19 -2 -25 0 -7 3 -2 5 12 5 14 0 19 -2 13 -5z m55 -81 c2 -15
-2 -22 -12 -22 -11 0 -16 9 -16 26 0 31 23 28 28 -4z"/>
<path d="M890 986 c0 -2 8 -10 18 -17 15 -13 16 -12 3 4 -13 16 -21 21 -21 13z"/>
<path d="M591 1236 c-9 -11 -10 -20 -1 -35 12 -24 35 -29 26 -6 -3 8 -1 15 4
15 6 0 10 5 10 11 0 6 -7 9 -14 6 -10 -4 -13 -1 -9 9 7 18 -1 18 -16 0z"/>
<path d="M1127 1234 c-4 -4 -7 -16 -7 -26 0 -15 6 -19 28 -16 19 2 27 9 27 23
0 20 -33 33 -48 19z m33 -24 c0 -5 -4 -10 -10 -10 -5 0 -10 5 -10 10 0 6 5 10
10 10 6 0 10 -4 10 -10z"/>
<path d="M960 1200 c-30 -16 -52 -29 -49 -30 10 0 119 51 119 56 0 8 -16 2
-70 -26z"/>
<path d="M670 1200 c0 -5 -7 -10 -16 -10 -8 0 -13 -4 -10 -9 3 -5 -1 -12 -10
-15 -8 -3 -12 -10 -9 -16 3 -6 -4 -10 -17 -10 -21 -1 -20 -2 7 -15 l30 -13
-45 -3 c-42 -2 -42 -3 -10 -6 19 -3 38 -8 42 -12 5 -4 -8 -5 -28 -3 -28 3 -35
1 -32 -9 3 -9 19 -14 42 -13 43 2 42 -1 -10 -21 -32 -13 -34 -14 -9 -10 29 5
28 4 -8 -16 -22 -11 -37 -23 -34 -25 3 -3 20 2 37 11 19 10 29 12 25 5 -5 -8
-3 -11 6 -8 8 3 13 10 12 15 -1 5 7 9 18 9 18 0 18 -2 -5 -19 -15 -10 -24 -22
-22 -26 3 -4 -22 -34 -54 -66 -33 -33 -60 -64 -60 -69 0 -6 37 25 81 69 45 44
78 73 73 65 -6 -12 -5 -13 7 -3 16 13 15 68 -2 79 -5 3 -9 20 -9 39 0 24 -5
35 -17 38 -15 4 -15 5 -2 6 13 1 22 13 47 64 2 4 -1 7 -7 7 -6 0 -11 -4 -11
-10z m-57 -127 c-7 -2 -19 -2 -25 0 -7 3 -2 5 12 5 14 0 19 -2 13 -5z"/>
<path d="M977 1178 c-49 -16 -86 -32 -83 -35 6 -6 167 46 181 58 14 14 -3 10
-98 -23z"/>
<path d="M1186 1181 c-16 -18 -16 -19 10 -25 34 -9 52 7 34 29 -16 20 -23 19
-44 -4z"/>
<path d="M1027 1157 c-53 -11 -95 -22 -93 -25 9 -8 196 29 196 39 0 5 -1 8 -2
8 -2 -1 -47 -11 -101 -22z"/>
<path d="M1236 1131 c-9 -10 -14 -25 -10 -35 7 -19 13 -20 37 -2 20 16 22 30
4 45 -11 8 -18 6 -31 -8z"/>
<path d="M509 1101 c-28 -29 -39 -61 -20 -61 14 0 39 28 56 61 20 38 2 38 -36
0z"/>
<path d="M1050 1088 c0 -4 39 -8 88 -7 48 0 83 2 77 4 -24 8 -165 11 -165 3z"/>
<path d="M442 1063 c-7 -12 -12 -29 -12 -37 0 -9 -4 -16 -10 -16 -5 0 -10 -10
-10 -22 0 -12 -5 -36 -12 -54 -9 -26 -9 -36 1 -48 20 -24 77 -20 95 6 19 27
21 44 4 30 -30 -24 -88 -11 -88 20 0 7 4 7 13 0 15 -13 74 -9 89 6 6 6 12 20
13 31 1 11 7 26 14 35 22 27 7 35 -31 16 l-37 -18 -8 37 c-9 34 -10 35 -21 14z
m58 -73 c8 -1 2 -7 -14 -15 -25 -10 -32 -10 -43 0 -7 8 -13 15 -13 17 0 4 39
3 70 -2z"/>
<path d="M1046 1052 c11 -11 204 -45 211 -38 3 3 -12 8 -33 11 -22 4 -70 13
-107 21 -80 16 -84 17 -71 6z"/>
<path d="M1290 1015 c0 -10 7 -15 18 -13 21 4 19 22 -2 26 -10 2 -16 -3 -16
-13z"/>
<path d="M562 978 c-18 -11 -31 -23 -28 -25 5 -5 76 35 76 43 0 8 -15 2 -48
-18z"/>
<path d="M568 944 c-23 -20 -45 -41 -47 -47 -2 -7 19 8 47 32 48 39 59 51 48
51 -2 0 -24 -16 -48 -36z"/>
<path d="M1110 972 c0 -9 181 -74 188 -67 3 2 -1 7 -9 9 -8 3 -51 19 -96 35
-46 17 -83 27 -83 23z"/>
<path d="M1070 948 c14 -7 71 -33 127 -59 64 -30 111 -45 125 -42 22 4 22 4 4
-11 -19 -15 -18 -16 20 -15 28 0 34 2 20 8 -14 5 -16 10 -8 15 22 13 13 26
-18 26 -16 0 -30 -4 -30 -9 0 -5 -54 15 -121 45 -66 30 -126 54 -132 53 -7 0
-1 -5 13 -11z"/>
<path d="M1312 915 c2 -14 8 -24 13 -23 6 1 9 8 7 15 -2 7 2 13 8 13 5 0 10
-7 10 -15 0 -8 5 -15 11 -15 6 0 9 10 7 23 -2 16 -11 23 -31 25 -25 3 -28 1
-25 -23z"/>
<path d="M380 851 c0 -10 8 -28 18 -40 14 -17 23 -20 47 -13 31 9 66 55 52 69
-5 4 -11 3 -15 -2 -4 -6 -18 -16 -31 -24 -22 -12 -26 -11 -42 8 -21 26 -29 27
-29 2z"/>
<path d="M467 784 c-27 -25 -29 -25 -53 -9 -33 21 -43 11 -23 -23 12 -21 22
-26 44 -25 36 3 68 34 63 62 -3 21 -3 21 -31 -5z"/>
<path d="M1314 775 c-2 -27 18 -33 46 -15 13 8 12 11 -5 24 -29 22 -40 19 -41
-9z"/>
<path d="M1220 760 c19 -17 44 -36 55 -41 11 -6 4 4 -15 21 -19 17 -44 35 -55
41 -11 5 -4 -4 15 -21z"/>
<path d="M490 743 c-1 -5 -9 -18 -19 -31 -16 -18 -24 -21 -45 -12 -31 11 -36
-8 -10 -34 21 -22 50 -20 74 4 21 21 28 80 10 80 -5 0 -10 -3 -10 -7z"/>
<path d="M1195 690 c27 -27 54 -50 59 -50 6 0 -12 23 -39 50 -27 28 -54 50
-59 50 -6 0 12 -22 39 -50z"/>
<path d="M1306 715 c4 -8 1 -15 -5 -15 -20 0 -11 -18 11 -24 27 -7 53 16 45
38 -4 9 -18 16 -31 16 -18 0 -24 -4 -20 -15z"/>
<path d="M501 658 c-12 -26 -18 -29 -46 -26 -29 3 -32 2 -24 -14 5 -9 17 -21
26 -27 25 -14 73 25 73 60 0 39 -13 43 -29 7z"/>
<path d="M1090 666 c0 -10 89 -136 96 -136 8 0 -12 31 -55 89 -23 30 -41 51
-41 47z"/>
<path d="M1280 659 c0 -8 41 -29 56 -29 16 0 -1 18 -26 27 -17 6 -30 7 -30 2z"/>
<path d="M530 604 c-13 -31 -18 -35 -42 -32 -31 5 -32 4 -18 -23 15 -28 55
-24 79 8 23 28 39 26 23 -4 -5 -10 -8 -23 -5 -29 3 -10 -9 -14 -52 -15 -19 0
-19 -1 4 -20 32 -26 43 -24 69 11 27 36 27 50 3 76 -10 11 -22 30 -25 42 -10
31 -20 27 -36 -14z"/>
<path d="M1273 606 c9 -7 17 -18 17 -25 0 -17 17 -13 24 5 10 26 7 29 -27 31
-28 2 -30 1 -14 -11z"/>
<path d="M619 533 c-1 -13 -3 -31 -3 -40 -1 -21 -32 -47 -46 -38 -6 3 -10 2
-10 -3 0 -15 79 -53 105 -50 14 2 25 5 24 8 -1 3 3 15 10 28 10 19 10 28 -4
48 -22 34 -32 30 -30 -13 1 -37 -8 -53 -32 -53 -9 0 -8 8 3 28 18 35 18 63 -1
88 -14 19 -14 18 -16 -3z"/>
<path d="M723 440 c5 -42 -11 -67 -35 -55 -7 4 -4 -1 6 -9 34 -27 59 -17 70
28 5 19 2 36 -9 52 -24 37 -38 30 -32 -16z"/>
<path d="M791 428 c11 -40 3 -68 -19 -69 -12 0 -10 -3 6 -10 39 -15 60 4 58
52 -2 38 -17 59 -43 59 -8 0 -9 -9 -2 -32z"/>
<path d="M1085 451 c-18 -17 -130 -50 -183 -53 -62 -4 -70 -18 -9 -18 72 1
237 50 237 71 0 12 -33 12 -45 0z"/>
<path d="M1274 1305 c-15 -23 -15 -27 0 -50 9 -14 24 -25 34 -25 16 1 15 2 -1
15 -22 16 -19 43 6 59 14 9 21 7 32 -7 7 -10 16 -14 19 -8 9 15 -22 41 -49 41
-15 0 -31 -10 -41 -25z"/>
<path d="M380 1285 c-22 -26 -8 -50 28 -47 35 2 42 -11 15 -28 -17 -10 -17
-11 1 -8 24 4 41 31 33 52 -5 14 -14 16 -37 11 -19 -4 -30 -3 -30 4 0 6 5 11
10 11 6 0 10 5 10 10 0 15 -16 12 -30 -5z"/>
<path d="M322 1197 c-32 -15 -40 -54 -14 -79 39 -39 101 5 81 58 -9 26 -37 34
-67 21z m43 -30 c21 -16 13 -37 -14 -37 -22 0 -45 25 -36 40 9 14 28 13 50 -3z"/>
<path d="M1407 1193 c-4 -3 -7 -17 -7 -30 0 -12 -4 -23 -10 -23 -5 0 -10 7
-10 15 0 8 -4 15 -10 15 -17 0 -11 -26 10 -45 16 -15 22 -15 35 -5 8 7 15 24
15 39 1 24 2 24 14 9 16 -22 29 -12 15 13 -10 19 -39 25 -52 12z"/>
<path d="M1420 1081 c-11 -22 2 -71 20 -71 6 0 5 8 -2 21 -11 17 -10 22 6 35
27 20 47 18 53 -6 3 -11 9 -20 14 -20 12 0 11 4 -3 35 -14 32 -71 36 -88 6z"/>
<path d="M241 1054 c-6 -15 -10 -27 -9 -28 25 -16 89 -32 94 -24 4 6 1 14 -6
18 -9 6 -7 11 9 19 31 17 26 31 -9 25 -19 -4 -30 -2 -30 5 0 22 -37 11 -49
-15z m34 -4 c3 -5 1 -10 -4 -10 -6 0 -11 5 -11 10 0 6 2 10 4 10 3 0 8 -4 11
-10z"/>
<path d="M1483 987 c-44 -10 -60 -37 -23 -37 11 0 20 -4 20 -10 0 -5 -7 -10
-15 -10 -8 0 -15 -7 -15 -15 0 -12 8 -14 43 -9 23 4 46 10 51 14 14 13 -2 29
-24 23 -11 -3 -20 0 -20 6 0 6 6 11 14 11 18 0 31 19 20 29 -5 4 -28 3 -51 -2z"/>
<path d="M218 964 c-5 -4 -8 -17 -8 -28 0 -17 9 -24 45 -32 36 -8 45 -7 50 4
8 22 6 52 -5 52 -5 0 -9 -5 -7 -12 1 -6 -6 -14 -17 -16 -12 -3 -16 0 -11 8 5
9 2 10 -13 6 -14 -5 -21 -2 -24 9 -2 9 -6 13 -10 9z"/>
<path d="M1478 869 c-28 -16 -24 -77 4 -88 54 -20 94 27 64 74 -17 26 -39 31
-68 14z m60 -40 c4 -19 -23 -32 -49 -24 -22 7 -25 31 -6 39 22 9 52 1 55 -15z"/>
<path d="M200 835 c0 -19 5 -35 10 -35 6 0 10 5 10 11 0 7 15 10 40 7 31 -3
40 0 40 12 0 12 -9 15 -40 12 -32 -3 -40 -1 -40 12 0 9 -4 16 -10 16 -5 0 -10
-16 -10 -35z"/>
<path d="M252 744 c-57 -34 -54 -50 9 -59 51 -7 81 1 41 12 -25 6 -28 21 -7
37 8 6 11 16 7 23 -6 9 -19 6 -50 -13z m18 -34 c0 -5 -5 -10 -11 -10 -5 0 -7
5 -4 10 3 6 8 10 11 10 2 0 4 -4 4 -10z"/>
<path d="M1456 728 c-30 -42 -14 -78 34 -78 34 0 50 17 50 52 0 47 -57 65 -84
26z m63 -22 c9 -10 8 -16 -3 -25 -27 -23 -74 8 -49 32 11 12 40 8 52 -7z"/>
<path d="M253 633 c-15 -5 -17 -41 -4 -61 6 -10 17 -9 54 5 34 14 44 22 38 32
-7 11 -14 11 -41 -3 -39 -19 -40 -19 -40 -6 0 6 7 10 16 10 9 0 14 5 12 12 -5
14 -18 18 -35 11z"/>
<path d="M1411 604 c-8 -19 -9 -30 -1 -38 7 -7 10 -4 10 8 0 19 9 19 68 1 39
-13 25 20 -15 35 -21 8 -41 16 -44 18 -3 1 -11 -10 -18 -24z"/>
<path d="M346 552 c-4 -8 -17 -11 -28 -9 -15 4 -18 2 -14 -10 4 -9 1 -22 -5
-29 -9 -11 -7 -14 10 -14 11 0 21 -4 21 -10 0 -5 5 -10 10 -10 6 0 10 7 10 15
0 9 9 15 23 15 20 1 20 2 6 13 -9 7 -18 21 -21 32 -3 15 -5 17 -12 7z"/>
<path d="M1401 519 c-1 -9 -11 -20 -23 -24 -20 -6 -20 -8 -5 -12 9 -2 17 -14
17 -25 0 -17 3 -18 15 -8 8 7 21 10 28 7 10 -4 14 3 13 24 -1 20 -6 29 -18 29
-9 0 -19 6 -21 13 -4 7 -6 6 -6 -4z"/>
<path d="M367 462 c-23 -25 -22 -28 11 -27 20 0 27 5 27 19 0 27 -18 30 -38 8z"/>
<path d="M1320 428 c0 -5 5 -18 11 -29 8 -15 7 -24 -2 -35 -10 -13 -14 -12
-32 3 -19 18 -20 17 -8 -4 6 -13 17 -23 23 -23 19 0 47 31 41 46 -3 8 4 17 17
22 20 7 19 9 -14 19 -22 7 -36 7 -36 1z m30 -18 c0 -5 -2 -10 -4 -10 -3 0 -8
5 -11 10 -3 6 -1 10 4 10 6 0 11 -4 11 -10z"/>
<path d="M401 416 c-23 -13 -23 -13 -2 -19 14 -3 19 -10 15 -21 -3 -9 -2 -16
4 -16 5 0 12 8 15 18 2 9 8 25 12 35 9 21 -9 22 -44 3z"/>
<path d="M462 400 c3 -8 -1 -23 -10 -33 -8 -9 -12 -20 -9 -24 4 -4 13 0 20 9
6 9 18 17 25 20 10 2 7 9 -9 23 -15 14 -20 16 -17 5z"/>
<path d="M495 340 c-15 -16 -15 -22 -5 -35 7 -8 17 -15 22 -15 6 0 5 6 -2 15
-13 15 -6 35 13 35 8 0 8 -3 -2 -9 -8 -5 -9 -11 -3 -15 11 -7 25 21 16 35 -8
14 -19 11 -39 -11z"/>
<path d="M1270 340 c6 -11 16 -20 22 -20 6 0 3 9 -7 20 -10 11 -20 20 -22 20
-2 0 1 -9 7 -20z"/>
<path d="M1244 335 c4 -12 0 -14 -19 -9 -25 6 -35 -9 -15 -21 18 -11 11 -20
-18 -21 -15 -1 -21 1 -14 3 13 5 7 23 -9 23 -5 0 -9 -13 -9 -30 0 -16 5 -30
10 -30 6 0 10 4 10 9 0 5 13 11 30 14 20 4 28 11 24 20 -4 11 1 13 22 9 l26
-5 -17 27 c-19 29 -30 35 -21 11z"/>
<path d="M542 305 c-15 -33 -15 -42 0 -27 17 17 29 15 22 -3 -10 -25 10 -17
22 9 8 18 8 28 1 35 -18 18 -33 13 -45 -14z"/>
<path d="M600 285 c-19 -23 -8 -50 20 -50 14 0 29 -6 33 -12 9 -15 47 -18 47
-4 0 6 -4 13 -10 16 -17 10 -11 25 8 18 13 -5 15 -3 5 7 -6 7 -19 10 -29 6
-13 -5 -15 -9 -6 -18 17 -17 15 -33 -3 -18 -8 7 -15 23 -15 35 0 13 -7 26 -16
29 -21 8 -20 8 -34 -9z m40 -19 c0 -18 -16 -29 -30 -21 -13 8 -1 35 16 35 8 0
14 -6 14 -14z"/>
<path d="M1119 287 c-1 -4 -3 -11 -4 -17 -1 -5 -3 -13 -4 -17 0 -4 -7 1 -14
12 -20 26 -28 6 -12 -30 11 -24 14 -26 14 -10 1 17 3 18 12 5 8 -11 12 -12 16
-2 2 6 9 9 15 6 6 -4 8 2 3 17 -8 25 -24 48 -26 36z"/>
<path d="M1007 253 c-13 -12 -7 -54 9 -60 8 -3 22 1 31 9 12 12 13 20 4 37
-12 21 -31 27 -44 14z m33 -34 c0 -20 -15 -26 -25 -9 -9 15 3 43 15 35 5 -3
10 -15 10 -26z"/>
<path d="M756 234 c-3 -9 -6 -23 -6 -32 0 -15 2 -15 10 -2 8 12 10 12 10 -5 1
-20 1 -20 15 -1 15 20 15 20 16 0 0 -14 3 -12 11 9 12 33 5 45 -17 27 -12 -10
-15 -10 -15 4 0 21 -16 21 -24 0z"/>
<path d="M947 244 c-11 -11 -8 -64 3 -64 6 0 10 7 10 15 0 18 16 20 23 3 3 -7
4 0 3 17 -1 29 -23 45 -39 29z m23 -14 c0 -5 -5 -10 -11 -10 -5 0 -7 5 -4 10
3 6 8 10 11 10 2 0 4 -4 4 -10z"/>
<path d="M830 210 c0 -25 4 -30 23 -29 21 0 21 1 2 9 -17 7 -17 9 -2 9 9 1 17
5 17 10 0 5 -8 12 -17 14 -10 3 -3 5 15 6 28 1 32 -2 33 -26 2 -28 2 -28 6 -3
3 14 10 28 17 32 6 4 -13 8 -41 8 -52 0 -53 0 -53 -30z"/>
<path d="M705 200 c-3 -5 -1 -10 4 -10 6 0 11 5 11 10 0 6 -2 10 -4 10 -3 0
-8 -4 -11 -10z"/>
</g>
</svg>
